<svg width="200" height="44" viewBox="0 0 200 44" fill="none" xmlns="http://www.w3.org/2000/svg">
<path d="M71.2086 11.0084C71.2086 13.5466 71.3732 15.2195 71.7025 16.0272C71.8175 16.3906 72.053 16.7068 72.3723 16.9267C72.6916 17.1465 73.0767 17.2576 73.4678 17.2425C73.8617 17.2647 74.2522 17.1615 74.5803 16.9485C74.9083 16.7356 75.156 16.4245 75.2857 16.0626C75.6177 15.2759 75.7836 13.5283 75.7836 10.8196C75.7836 8.42426 75.6177 6.83131 75.2897 6.05647C75.1671 5.698 74.9269 5.38847 74.6058 5.17534C74.2848 4.96221 73.9007 4.85724 73.5123 4.87651C73.1202 4.85569 72.7318 4.95962 72.4059 5.17254C72.0801 5.38547 71.8345 5.69579 71.7066 6.05647C71.3746 6.84311 71.2086 8.48195 71.2086 10.973V11.0084ZM81.7353 2.43399H87.5897C89.8732 2.43399 91.4792 3.06985 92.4077 4.34159C93.3362 5.61333 93.7977 7.85133 93.7923 11.0556C93.7923 14.2572 93.3308 16.486 92.4077 17.742C91.4846 18.998 89.8786 19.6339 87.5897 19.6496H81.7555L81.7353 2.43399ZM106.813 19.6654V2.43399H110.55V16.625H115.971V19.6654H106.813ZM95.3997 19.6654V2.43399H104.983V5.09677H99.161V9.21091H104.538V11.8658H99.161V16.8885H105.234V19.6693L95.3997 19.6654ZM85.4965 5.04957V16.9633H87.0958C88.2739 16.9633 89.0837 16.5699 89.525 15.8226C89.9663 15.0753 90.1931 13.4627 90.1931 11.0084C90.1931 8.55406 89.9744 6.94931 89.525 6.19021C89.0756 5.4311 88.2699 5.04957 87.0958 5.04957H85.4965ZM73.4921 19.9328C72.7178 19.9381 71.9469 19.8321 71.2045 19.6182C70.5818 19.4512 70.0032 19.1561 69.5081 18.7529C68.7154 18.0367 68.1672 17.102 67.9372 16.0744C67.6214 14.9075 67.4622 13.1677 67.4595 10.855C67.4302 9.45179 67.5278 8.04882 67.751 6.66219C67.8892 5.78937 68.2118 4.95375 68.6984 4.20786C69.1613 3.54649 69.8168 3.03431 70.581 2.73684C71.4986 2.37616 72.4822 2.20084 73.4718 2.22159C74.2601 2.21464 75.045 2.32338 75.7998 2.54412C76.4363 2.72055 77.0269 3.02621 77.5327 3.44089C78.2703 4.11121 78.7897 4.97675 79.0267 5.93061C79.3758 7.47994 79.5268 9.06521 79.4761 10.6505C79.5165 12.2432 79.4203 13.8364 79.1886 15.4136C79.0428 16.3041 78.7122 17.1565 78.2169 17.919C77.7493 18.5824 77.0941 19.1001 76.3302 19.4097C75.4341 19.7772 74.4686 19.958 73.4961 19.9407L73.4921 19.9328ZM65.7185 10.6033V19.3468C64.5039 19.5552 63.516 19.7086 62.6901 19.7952C61.9431 19.8834 61.1915 19.9293 60.439 19.9328C59.5136 19.9499 58.5898 19.852 57.6899 19.6418C57.0175 19.4834 56.3905 19.1795 55.8559 18.7529C55.0772 18.0459 54.5355 17.1277 54.3011 16.1176C53.9975 14.9809 53.8477 13.1598 53.8477 10.6426C53.8177 9.2906 53.9126 7.93873 54.1311 6.60319C54.273 5.7503 54.5941 4.93494 55.0745 4.20786C55.5479 3.53394 56.2195 3.01442 57.0016 2.71718C57.9755 2.36267 59.0107 2.19438 60.0503 2.22159C61.8965 2.22159 63.3028 2.66998 64.2691 3.56675C65.2354 4.46352 65.7185 5.77459 65.7185 7.49996V7.75562H62.0747V7.54716C62.1298 6.78835 61.9463 6.03118 61.5484 5.37603C61.3607 5.13627 61.1141 4.94615 60.8311 4.82313C60.5482 4.70011 60.2379 4.64814 59.9289 4.67199C59.5271 4.64534 59.1272 4.74592 58.7893 4.95866C58.4513 5.17139 58.1934 5.48482 58.0543 5.85195C57.7142 6.63859 57.5428 8.36264 57.5401 11.0241C57.5401 13.8324 57.7466 15.6063 58.1596 16.33C58.5725 17.0537 59.3499 17.4234 60.4754 17.4234C60.7464 17.4218 61.017 17.402 61.2852 17.3644C61.6313 17.3166 61.9746 17.251 62.3135 17.1678V13.3172H60.2892V10.619H65.7145" fill="white"/>
<path d="M22.1546 0C16.2821 0.0103972 10.6532 2.28128 6.50076 6.31528C2.34829 10.3493 0.0107026 15.8176 0 21.5225C0.012842 27.2261 2.35136 32.6924 6.5036 36.7247C10.6558 40.757 16.2835 43.0268 22.1546 43.0372C28.0274 43.0268 33.6568 40.756 37.8099 36.7221C41.963 32.6882 44.3015 27.2199 44.3133 21.5146C44.2993 15.8107 41.9599 10.3444 37.807 6.31225C33.6541 2.28006 28.026 0.010387 22.1546 0ZM35.9931 23.6307H31.4505V32.1972H31.41V32.2366H13.6604V10.8085H26.9685V15.0838H17.8346V27.9572H26.9969V23.6307H22.4056V19.3868H35.9931V23.6307Z" fill="white"/>
<path d="M188.634 35.2125H192.407V35.6688C192.407 36.5577 192.565 37.187 192.873 37.5646C193.067 37.7682 193.308 37.9253 193.576 38.0235C193.843 38.1218 194.13 38.1585 194.415 38.1309C194.664 38.1427 194.913 38.104 195.146 38.0174C195.379 37.9307 195.59 37.7979 195.767 37.6275C196.114 37.2474 196.293 36.7501 196.265 36.243C196.265 35.4249 195.456 34.5124 193.909 33.5173L193.682 33.3796C192.856 32.8552 192.196 32.4265 191.703 32.0935C191.318 31.8398 190.95 31.5626 190.601 31.2636C190.05 30.8128 189.597 30.2591 189.269 29.6352C189.011 29.0385 188.888 28.3945 188.909 27.7473C188.88 27.0982 189.002 26.451 189.265 25.8539C189.529 25.2567 189.927 24.7249 190.431 24.2979C191.443 23.4404 192.806 23.013 194.52 23.0156C196.296 23.0156 197.63 23.409 198.521 24.1956C199.411 24.9822 199.859 26.1622 199.865 27.7355V28.1917H196.193V28.1013C196.24 27.4595 196.081 26.8193 195.739 26.2684C195.586 26.0642 195.382 25.9009 195.146 25.7936C194.91 25.6864 194.651 25.6386 194.391 25.6548C194.151 25.6437 193.912 25.6806 193.688 25.7631C193.463 25.8457 193.259 25.9721 193.087 26.1347C192.92 26.3074 192.791 26.511 192.707 26.7333C192.623 26.9556 192.585 27.1921 192.597 27.4287C192.597 28.3569 193.624 29.4137 195.678 30.5989C196.205 30.9096 196.618 31.1534 196.893 31.3344C197.834 31.8597 198.66 32.56 199.322 33.3954C199.786 34.0983 200.022 34.9206 199.998 35.7553C199.998 37.4282 199.494 38.6895 198.484 39.539C197.472 40.3886 195.982 40.8134 193.998 40.8134C192.136 40.8134 190.759 40.4201 189.905 39.602C189.051 38.7839 188.601 37.5331 188.601 35.8104C188.601 35.7514 188.601 35.6491 188.601 35.5193C188.601 35.3895 188.601 35.2833 188.601 35.2046L188.634 35.2125ZM177.702 40.5263V23.2988H187.285V25.9616H181.443V30.0561H186.82V32.711H181.443V37.7337H187.516V40.5105L177.702 40.5263ZM171.763 40.5263V23.2988H175.382V40.5263H171.763ZM169.694 31.4799V40.2234C168.499 40.4358 167.487 40.5853 166.665 40.6757C165.918 40.7621 165.167 40.808 164.414 40.8134C163.489 40.8313 162.564 40.7321 161.665 40.5184C160.991 40.3633 160.364 40.0591 159.831 39.6295C159.052 38.9249 158.511 38.0074 158.28 36.9982C157.977 35.8615 157.823 34.0404 157.823 31.5232C157.793 30.1712 157.888 28.8193 158.106 27.4838C158.248 26.6309 158.569 25.8155 159.05 25.0884C159.523 24.4145 160.195 23.895 160.977 23.5977C161.952 23.2434 162.989 23.0751 164.03 23.1022C165.872 23.1022 167.269 23.5506 168.244 24.4473C169.22 25.3441 169.694 26.6499 169.694 28.3805V28.6401H166.05V28.4317C166.106 27.6728 165.922 26.9155 165.523 26.2605C165.336 26.0203 165.09 25.8296 164.807 25.7059C164.524 25.5823 164.213 25.5295 163.904 25.5526C163.503 25.527 163.105 25.6282 162.769 25.8409C162.432 26.0536 162.176 26.3664 162.038 26.7325C161.695 27.5192 161.523 29.2432 161.523 31.9047C161.523 34.713 161.726 36.4829 162.143 37.2106C162.56 37.9382 163.329 38.304 164.455 38.304C164.726 38.3023 164.996 38.2826 165.264 38.245C165.56 38.2057 165.9 38.1388 166.293 38.0484V34.1938H164.268V31.4956L169.694 31.4799ZM147.794 31.8732C147.794 34.4062 147.959 36.0791 148.288 36.892C148.404 37.255 148.639 37.5709 148.958 37.7907C149.278 38.0104 149.662 38.1217 150.053 38.1073C150.447 38.1295 150.838 38.0263 151.166 37.8133C151.494 37.6004 151.742 37.2894 151.871 36.9274C152.203 36.1407 152.369 34.3931 152.369 31.6844C152.369 29.2891 152.203 27.6962 151.875 26.9174C151.752 26.5593 151.512 26.2501 151.191 26.0371C150.87 25.824 150.486 25.7188 150.098 25.7374C149.706 25.7172 149.318 25.8214 148.992 26.0343C148.666 26.2471 148.421 26.5571 148.292 26.9174C147.96 27.704 147.794 29.3442 147.794 31.8378V31.8732ZM150.098 40.7977C149.323 40.804 148.552 40.6966 147.81 40.4791C147.186 40.3129 146.606 40.0177 146.11 39.6138C145.321 38.8974 144.776 37.9644 144.547 36.9392C144.229 35.7723 144.069 34.0325 144.069 31.7198C144.039 30.3154 144.135 28.9112 144.357 27.5231C144.499 26.6524 144.821 25.8188 145.304 25.0727C145.767 24.4113 146.423 23.8992 147.187 23.6017C148.104 23.241 149.088 23.0657 150.078 23.0864C150.866 23.0774 151.651 23.1862 152.406 23.409C153.041 23.5856 153.631 23.8898 154.139 24.3018C154.878 24.9719 155.396 25.8396 155.628 26.7954C155.983 28.344 156.135 29.9298 156.082 31.5153C156.121 33.1078 156.026 34.7008 155.799 36.2784C155.651 37.1689 155.319 38.0212 154.823 38.7839C154.353 39.4471 153.697 39.9646 152.932 40.2745C152.036 40.6426 151.07 40.8235 150.098 40.8055V40.7977ZM134.616 40.5263V23.2988H138.357V37.4898H143.778V40.5263H134.616ZM124.324 31.8732C124.324 34.4062 124.487 36.0791 124.814 36.892C124.93 37.2547 125.166 37.5702 125.485 37.7898C125.804 38.0095 126.188 38.121 126.579 38.1073C126.973 38.1295 127.363 38.0263 127.691 37.8133C128.019 37.6004 128.267 37.2894 128.397 36.9274C128.733 36.1407 128.895 34.3905 128.895 31.6844C128.895 29.2891 128.733 27.6962 128.401 26.9174C128.278 26.5593 128.037 26.2501 127.716 26.0371C127.395 25.824 127.012 25.7188 126.623 25.7374C126.232 25.7179 125.844 25.8223 125.518 26.0351C125.193 26.2478 124.947 26.5574 124.818 26.9174C124.486 27.704 124.321 29.3442 124.324 31.8378V31.8732ZM126.623 40.7977C125.85 40.8039 125.08 40.6965 124.34 40.4791C123.715 40.3141 123.135 40.0189 122.639 39.6138C121.848 38.8989 121.301 37.9654 121.073 36.9392C120.754 35.7723 120.595 34.0325 120.595 31.7198C120.565 30.3154 120.661 28.9112 120.882 27.5231C121.024 26.6524 121.346 25.8188 121.83 25.0727C122.295 24.412 122.952 23.9001 123.716 23.6017C124.633 23.2408 125.615 23.0654 126.603 23.0864C127.392 23.0774 128.177 23.1862 128.931 23.409C129.567 23.5856 130.157 23.8898 130.664 24.3018C131.403 24.9726 131.923 25.8398 132.158 26.7954C132.509 28.3445 132.66 29.93 132.607 31.5153C132.647 33.1078 132.552 34.7008 132.324 36.2784C132.176 37.1682 131.845 38.0202 131.352 38.7839C130.881 39.4453 130.225 39.9623 129.462 40.2745C128.565 40.642 127.6 40.8229 126.627 40.8055L126.623 40.7977ZM105.465 40.5263V23.2988H110.441L113.833 32.2469C114.238 33.2892 114.591 34.3079 114.898 35.299C115.206 36.2902 115.469 37.2656 115.684 38.2253C115.597 37.4859 115.53 36.7071 115.481 35.889C115.437 35.063 115.408 34.1781 115.408 33.2262L115.194 23.2988H118.627V40.5263H113.769L110.178 31.0866C109.908 30.3734 109.623 29.5238 109.323 28.5379C109.016 27.5467 108.704 26.4611 108.384 25.2694C108.469 26.3549 108.538 27.3186 108.586 28.1406C108.635 28.9626 108.659 29.6667 108.671 30.2449L108.878 40.5105L105.465 40.5263ZM95.4321 40.5263H91.7437V23.2988H95.4321V29.9853H99.4808V23.2988H103.198V40.5263H99.4808V32.8998H95.4321V40.5263ZM90.0473 34.6265C90.0633 34.7267 90.0728 34.8279 90.0756 34.9293C90.0756 35.0394 90.0756 35.2046 90.0756 35.421C90.0756 37.1358 89.5979 38.4535 88.6424 39.3856C87.6869 40.3178 86.3265 40.7859 84.5532 40.7859C83.7786 40.7913 83.0075 40.6839 82.2656 40.4673C81.6405 40.3002 81.0593 40.0052 80.5611 39.602C79.7839 38.9025 79.2432 37.9905 79.0105 36.9864C78.7082 35.8615 78.557 34.026 78.557 31.4799C78.5282 30.1281 78.6216 28.7764 78.8364 27.4405C78.9816 26.5879 79.3039 25.7729 79.7838 25.0452C80.2439 24.381 80.8982 23.8659 81.6624 23.5663C82.5742 23.2109 83.5506 23.0383 84.5329 23.0589C86.3279 23.0589 87.6774 23.5034 88.5816 24.3923C89.4859 25.2812 89.942 26.6014 89.9501 28.353V28.6755H86.2374V28.353C86.2893 27.6501 86.1378 26.9471 85.8002 26.3235C85.6571 26.1069 85.457 25.9315 85.2207 25.8153C84.9844 25.6991 84.7203 25.6464 84.456 25.6627C84.0782 25.6449 83.705 25.7486 83.3939 25.9576C83.0829 26.1666 82.8514 26.4694 82.7353 26.819C82.4276 27.59 82.2724 29.3822 82.2697 32.1957C82.2697 34.5557 82.4317 36.1289 82.7556 36.9156C82.8745 37.2708 83.1099 37.5784 83.4257 37.7914C83.7415 38.0045 84.1204 38.1113 84.5046 38.0956C84.7765 38.1084 85.0467 38.0484 85.2859 37.9221C85.5251 37.7959 85.724 37.6083 85.8609 37.3797C86.2077 36.7122 86.3643 35.9666 86.3144 35.2204C86.3144 35.1614 86.3144 35.067 86.3144 34.9372C86.3144 34.8074 86.3144 34.7051 86.3144 34.6265H90.0473ZM67.419 40.5263V23.2988H77.0023V25.9616H71.1479V30.0561H76.5205V32.711H71.1479V37.7337H77.2209V40.5105L67.419 40.5263ZM57.9166 40.5263V26.1229H53.8679V23.2988H65.7833V26.1229H61.7346V40.5263H57.8964" fill="white"/>
</svg>
