<svg width="124" height="28" viewBox="0 0 124 28" fill="none" xmlns="http://www.w3.org/2000/svg">
<g clip-path="url(#clip0_998_29308)">
<path fill-rule="evenodd" clip-rule="evenodd" d="M27.4725 14.0001C27.4725 6.28841 21.3017 -0.000616074 13.736 -0.000616074C6.17036 -0.000616074 0 6.28841 0 14.0001C0 21.711 6.17036 28 13.736 28C21.3017 28 27.4725 21.711 27.4725 14.0001ZM16.7369 15.3727V18.1865H11.0566V9.81332H16.7178V7.03078H8.46875V20.9686H19.4736V20.9445H19.4966V15.3727H22.3129V12.6121H13.89V15.3727H16.7369Z" fill="#0C2753"/>
<path fill-rule="evenodd" clip-rule="evenodd" d="M116.95 22.9058H119.291V23.2024C119.291 23.7807 119.388 24.1904 119.579 24.4356C119.769 24.6817 120.088 24.8045 120.535 24.8045C120.889 24.8045 121.166 24.6948 121.373 24.4755C121.579 24.254 121.683 23.954 121.683 23.5752C121.683 23.0433 121.194 22.4512 120.221 21.8042L120.08 21.7128C119.569 21.3732 119.158 21.0952 118.854 20.878C118.548 20.6594 118.322 20.4784 118.172 20.338C117.77 19.963 117.491 19.6095 117.345 19.2772C117.195 18.9453 117.121 18.5352 117.121 18.0512C117.121 17.1111 117.435 16.365 118.065 15.8069C118.693 15.2491 119.538 14.9724 120.602 14.9724C121.701 14.9724 122.529 15.2312 123.079 15.7476C123.635 16.2631 123.913 17.0314 123.913 18.0512V18.3462H121.637V18.287C121.637 17.7577 121.543 17.3601 121.357 17.0965C121.171 16.8289 120.893 16.6962 120.521 16.6962C120.182 16.6962 119.911 16.8004 119.711 17.0077C119.511 17.2149 119.407 17.4978 119.407 17.8503C119.407 18.4552 120.045 19.1427 121.317 19.9126C121.646 20.1143 121.9 20.2733 122.078 20.3902C122.798 20.8567 123.3 21.3031 123.582 21.7307C123.862 22.1591 124.002 22.6705 124.002 23.2642C124.002 24.3505 123.689 25.173 123.063 25.7245C122.436 26.2772 121.511 26.5529 120.281 26.5529C119.128 26.5529 118.284 26.2915 117.744 25.7673C117.205 25.242 116.935 24.4196 116.935 23.2993C116.935 23.262 116.938 23.1958 116.942 23.1113C116.947 23.0247 116.95 22.9578 116.95 22.9058ZM110.166 26.3628V15.1555H116.107V16.8888H112.484V19.5628H115.818V21.2877H112.484V24.556H116.242V26.3628H110.166ZM106.483 26.3628V15.1555H108.728V26.3628H106.483ZM105.201 20.4685V26.1555C104.46 26.2941 103.834 26.3913 103.323 26.4494C102.808 26.5091 102.346 26.5376 101.928 26.5376C101.256 26.5376 100.689 26.4753 100.224 26.3474C99.7602 26.2206 99.3806 26.029 99.0859 25.7695C98.6353 25.3649 98.3142 24.7935 98.1241 24.0577C97.9363 23.3175 97.8421 22.1332 97.8421 20.496C97.8421 19.3675 97.8999 18.4914 98.0162 17.8696C98.1324 17.2434 98.3268 16.7248 98.6017 16.3102C98.8843 15.8793 99.2842 15.5553 99.7977 15.3397C100.312 15.1248 100.943 15.0191 101.689 15.0191C102.832 15.0191 103.705 15.309 104.302 15.8924C104.901 16.4765 105.201 17.3268 105.201 18.4442V18.6131H102.944V18.476C102.944 17.8428 102.834 17.3728 102.618 17.0647C102.4 16.7587 102.068 16.6057 101.623 16.6057C101.061 16.6057 100.674 16.8607 100.463 17.3685C100.251 17.8788 100.145 18.9995 100.145 20.7328C100.145 22.5608 100.271 23.7123 100.529 24.1843C100.785 24.6597 101.264 24.8955 101.964 24.8955C102.119 24.8955 102.286 24.8824 102.468 24.8567C102.651 24.833 102.862 24.7891 103.106 24.7293V22.2231H101.839V20.4685H105.201ZM91.6244 20.7328C91.6244 22.3821 91.7264 23.471 91.9296 23.9985C92.1334 24.5238 92.4981 24.7891 93.0242 24.7891C93.5696 24.7891 93.9452 24.5347 94.1518 24.0281C94.3578 23.5149 94.4603 22.3795 94.4603 20.6177C94.4603 19.0594 94.3578 18.0242 94.154 17.5187C93.9502 17.0131 93.5839 16.7587 93.0523 16.7587C92.5124 16.7587 92.139 17.0186 91.9329 17.534C91.7264 18.0512 91.6244 19.1164 91.6244 20.7328ZM93.0523 26.5376C92.5455 26.5376 92.0718 26.4702 91.6349 26.3321C91.1937 26.1945 90.8433 26.0079 90.5806 25.7695C90.1277 25.3703 89.8055 24.7891 89.6094 24.0292C89.4127 23.2682 89.3141 22.1376 89.3141 20.633C89.3141 19.4695 89.372 18.5593 89.492 17.9051C89.6121 17.2522 89.8082 16.7204 90.0793 16.3102C90.3492 15.895 90.7387 15.5762 91.2477 15.3529C91.7567 15.1303 92.3516 15.0191 93.0391 15.0191C93.5635 15.0191 94.0466 15.0886 94.4829 15.2279C94.9203 15.366 95.2783 15.5606 95.5565 15.8097C95.9895 16.1988 96.2963 16.7416 96.482 17.4298C96.6687 18.1236 96.7624 19.146 96.7624 20.496C96.7624 21.9051 96.704 22.937 96.585 23.5934C96.4649 24.2496 96.2638 24.7913 95.9818 25.2227C95.7113 25.6368 95.3224 25.9614 94.8101 26.1932C94.2978 26.4224 93.7139 26.5376 93.0523 26.5376ZM83.4534 26.3628V15.1555H85.7715V24.3878H89.1334V26.3628H83.4534ZM77.0717 20.7328C77.0717 22.3821 77.1736 23.471 77.3757 23.9985C77.5807 24.5238 77.9453 24.7891 78.4703 24.7891C79.0157 24.7891 79.3914 24.5347 79.5979 24.0281C79.8056 23.5149 79.9064 22.3795 79.9064 20.6177C79.9064 19.0594 79.8056 18.0242 79.6001 17.5187C79.3974 17.0131 79.0305 16.7587 78.4984 16.7587C77.9602 16.7587 77.5856 17.0186 77.3796 17.534C77.1736 18.0512 77.0717 19.1164 77.0717 20.7328ZM78.4984 26.5376C77.9916 26.5376 77.519 26.4702 77.0816 26.3321C76.6409 26.1945 76.2894 26.0079 76.0272 25.7695C75.575 25.3703 75.2516 24.7891 75.0566 24.0292C74.8594 23.2682 74.7602 22.1376 74.7602 20.633C74.7602 19.4695 74.8186 18.5593 74.9382 17.9051C75.0582 17.2522 75.2544 16.7204 75.5265 16.3102C75.7964 15.895 76.1859 15.5762 76.6949 15.3529C77.2039 15.1303 77.7999 15.0191 78.4857 15.0191C79.0102 15.0191 79.4938 15.0886 79.9285 15.2279C80.3664 15.366 80.7256 15.5606 81.0026 15.8097C81.4362 16.1988 81.743 16.7416 81.9292 17.4298C82.1148 18.1236 82.209 19.146 82.209 20.496C82.209 21.9051 82.1507 22.937 82.0317 23.5934C81.911 24.2496 81.7105 24.7913 81.429 25.2227C81.1591 25.6368 80.7685 25.9614 80.2573 26.1932C79.745 26.4224 79.1605 26.5376 78.4984 26.5376ZM65.3812 26.3628V15.1555H68.4666L70.5698 20.9762C70.816 21.6557 71.0375 22.3167 71.2281 22.9633C71.4192 23.6085 71.5823 24.2441 71.7167 24.8659C71.6633 24.3841 71.6197 23.8779 71.59 23.3449C71.5619 22.8076 71.5459 22.2319 71.5459 21.6145L71.4121 15.1555H73.5362V26.3628H70.5235L68.2964 20.2321C68.1317 19.77 67.9565 19.2173 67.7675 18.5747C67.5764 17.931 67.383 17.2233 67.1847 16.4473C67.2387 17.1557 67.2811 17.7807 67.312 18.317C67.3401 18.8539 67.3571 19.3083 67.3637 19.6845L67.4904 26.3628H65.3812ZM59.1608 26.3628H56.8731V15.1555H59.1608V19.5161H61.6672V15.1555H63.9715V26.3628H61.6672V21.4017H59.1608V26.3628ZM55.8225 22.5317C55.8325 22.5926 55.838 22.6602 55.8407 22.7297C55.8429 22.8021 55.8451 22.9085 55.8451 23.0484C55.8451 24.1641 55.5493 25.0227 54.9565 25.6291C54.3671 26.2334 53.5214 26.5376 52.4216 26.5376C51.9168 26.5376 51.4434 26.4702 51.0029 26.3321C50.5627 26.1945 50.2108 26.0079 49.9464 25.7695C49.4962 25.3703 49.1754 24.8016 48.9849 24.0682C48.796 23.3344 48.7024 22.1435 48.7024 20.496C48.7024 19.3675 48.7612 18.4914 48.8776 17.8696C48.9948 17.2434 49.1881 16.7248 49.4631 16.3102C49.7355 15.8902 50.1246 15.5689 50.6283 15.3474C51.1346 15.1274 51.7278 15.0191 52.4076 15.0191C53.5214 15.0191 54.3587 15.3062 54.924 15.8848C55.4887 16.4631 55.7719 17.3224 55.7719 18.4607V18.6723H53.4654V18.4607C53.4654 17.8663 53.377 17.4276 53.1941 17.1425C53.0134 16.8541 52.7349 16.7116 52.3616 16.7116C51.8447 16.7116 51.491 16.9638 51.2945 17.4639C51.1021 17.9646 51.0051 19.1318 51.0051 20.9609C51.0051 22.4929 51.1066 23.5149 51.307 24.0281C51.5084 24.5347 51.8707 24.7891 52.3915 24.7891C52.7652 24.7891 53.0454 24.6323 53.2327 24.3242C53.4177 24.016 53.5115 23.5493 53.5115 22.9183C53.5115 22.88 53.5085 22.8179 53.504 22.7352C53.4993 22.6497 53.4962 22.5839 53.4962 22.5317H55.8225ZM41.7925 26.3628V15.1555H47.7356V16.8888H44.1115V19.5628H47.4449V21.2877H44.1115V24.556H47.8705V26.3628H41.7925ZM35.903 26.3628V16.9945H33.3984V15.1555H40.7874V16.9945H38.2669V26.3628H35.903Z" fill="#0C2753"/>
<path fill-rule="evenodd" clip-rule="evenodd" d="M44.1507 7.16105C44.1507 8.81079 44.2524 9.89946 44.4558 10.4267C44.6591 10.9522 45.023 11.2174 45.5504 11.2174C46.0948 11.2174 46.471 10.9631 46.6778 10.4559C46.8835 9.94353 46.9853 8.80748 46.9853 7.04696C46.9853 5.48784 46.8835 4.45285 46.6803 3.94714C46.4763 3.4416 46.1106 3.18715 45.5784 3.18715C45.0383 3.18715 44.6648 3.44683 44.4582 3.96269C44.2524 4.47896 44.1507 5.54489 44.1507 7.16105ZM50.6877 1.58441H54.3193C55.7344 1.58441 56.7293 1.99714 57.3049 2.82422C57.8767 3.64929 58.1643 5.10381 58.1643 7.19216C58.1643 9.27483 57.8767 10.7268 57.3049 11.5521C56.7293 12.3789 55.7344 12.7919 54.3193 12.7919H50.6877V1.58441ZM66.2361 12.7919V1.58441H68.5536V10.816H71.9156V12.7919H66.2361ZM59.1608 12.7919V1.58441H65.103V3.31657H61.48V5.99097H64.8138V7.71611H61.48V10.984H65.2385V12.7919H59.1608ZM53.0218 3.28563V11.0357H54.0118C54.7421 11.0357 55.2453 10.789 55.5201 10.2942C55.7983 9.80075 55.9349 8.75571 55.9349 7.16105C55.9349 5.56572 55.7983 4.52039 55.5201 4.02738C55.2453 3.53194 54.7421 3.28563 54.0118 3.28563H53.0218ZM45.5784 12.9658C45.0714 12.9658 44.5987 12.898 44.1606 12.7607C43.7201 12.6234 43.3698 12.437 43.1075 12.1977C42.6541 11.799 42.3306 11.2174 42.1348 10.4574C41.9392 9.6975 41.8394 8.56622 41.8394 7.06235C41.8394 5.89777 41.8984 4.98758 42.0178 4.33399C42.1378 3.68 42.3337 3.1488 42.6061 2.73843C42.8759 2.32351 43.2647 2.00438 43.7737 1.78154C44.283 1.55869 44.8782 1.44707 45.5653 1.44707C46.0897 1.44707 46.573 1.51703 47.0083 1.65678C47.4466 1.79473 47.8045 1.98905 48.0823 2.23795C48.5148 2.62704 48.8225 3.16941 49.0088 3.85916C49.1939 4.55155 49.2883 5.57358 49.2883 6.92439C49.2883 8.33371 49.2301 9.3654 49.11 10.0219C48.9914 10.6785 48.7895 11.2198 48.5072 11.6508C48.2376 12.0655 47.8484 12.3901 47.3366 12.6203C46.8247 12.8515 46.2399 12.9658 45.5784 12.9658ZM40.7579 6.89677V12.5844C40.0177 12.7221 39.3924 12.8199 38.8802 12.8778C38.3659 12.9375 37.903 12.9658 37.486 12.9658C36.814 12.9658 36.2466 12.9035 35.7805 12.7761C35.317 12.6499 34.9383 12.457 34.6433 12.1977C34.1931 11.7931 33.8721 11.2228 33.681 10.4859C33.4929 9.74663 33.3984 8.56139 33.3984 6.92439C33.3984 5.7962 33.4574 4.92004 33.5742 4.29738C33.6913 3.67231 33.8841 3.15363 34.1591 2.73843C34.4423 2.30768 34.8417 1.98355 35.3555 1.7684C35.8702 1.55302 36.5005 1.44707 37.2459 1.44707C38.3894 1.44707 39.2619 1.73746 39.8599 2.3211C40.4579 2.90468 40.7579 3.7554 40.7579 4.8731V5.04154H38.5013V4.90466C38.5013 4.2715 38.3922 3.80217 38.1755 3.49354C37.959 3.18715 37.6257 3.0341 37.1807 3.0341C36.618 3.0341 36.2313 3.28894 36.02 3.79667C35.8085 4.30788 35.7019 5.42838 35.7019 7.16105C35.7019 8.98928 35.8289 10.1409 36.0858 10.6131C36.3432 11.0871 36.822 11.3242 37.5211 11.3242C37.6771 11.3242 37.8448 11.3108 38.0253 11.2851C38.2082 11.2617 38.4189 11.2174 38.6637 11.1577V8.65178H37.3963V6.89677H40.7579Z" fill="#0C2753"/>
</g>
<defs>
<clipPath id="clip0_998_29308">
<rect width="124" height="28" fill="white"/>
</clipPath>
</defs>
</svg>
